<svg width="20" height="20" viewBox="0 0 20 20" fill="none" xmlns="http://www.w3.org/2000/svg">
<g clip-path="url(#clip0_741_7229)">
<path d="M18 5.9H2C0.840124 5.9 -0.1 6.84008 -0.1 8V17C-0.1 18.1599 0.840123 19.1 2 19.1H18C19.1599 19.1 20.1 18.1599 20.1 17V8C20.1 6.84008 19.1599 5.9 18 5.9ZM18.9 17C18.9 17.4961 18.4961 17.9 18 17.9H2C1.5039 17.9 1.1 17.4961 1.1 17V8C1.1 7.5039 1.5039 7.1 2 7.1H18C18.4961 7.1 18.9 7.5039 18.9 8V17Z" fill="#949292" stroke="#949292" stroke-width="0.2"/>
<path d="M4.43821 4.90939L4.48047 5.10002H6.84648H6.86865L6.88874 5.09065L13.1204 2.18499L13.0782 2.09435L13.1204 2.18498C13.57 1.97531 14.1069 2.17066 14.3165 2.62028L14.3165 2.6203L15.4462 5.04229L15.4731 5.10002H15.5368H16.6401H16.7971L16.7307 4.95775L15.4041 2.11306C14.9137 1.06169 13.6646 0.607022 12.6132 1.09736C12.6132 1.09736 12.6132 1.09736 12.6132 1.09736L4.43821 4.90939Z" fill="#949292" stroke="#949292" stroke-width="0.2"/>
<path d="M6 7.9H3C2.39243 7.9 1.9 8.39243 1.9 9V11C1.9 11.6076 2.39243 12.1 3 12.1H6C6.60757 12.1 7.1 11.6076 7.1 11V9C7.1 8.39243 6.60757 7.9 6 7.9ZM5.9 10.9H3.1V9.1H5.9V10.9Z" fill="#949292" stroke="#949292" stroke-width="0.2"/>
<path d="M12.1 15V14.9H12H2H1.9V15V16V16.1H2H12H12.1V16V15Z" fill="#949292" stroke="#949292" stroke-width="0.2"/>
<path d="M16.5 13.9C16.1191 13.9 15.7732 14.0367 15.5 14.2579C15.2268 14.0367 14.8809 13.9 14.5 13.9C13.6165 13.9 12.9 14.6165 12.9 15.5C12.9 16.3835 13.6165 17.1 14.5 17.1C14.8809 17.1 15.2268 16.9633 15.5 16.7421C15.7732 16.9633 16.1191 17.1 16.5 17.1C17.3835 17.1 18.1 16.3835 18.1 15.5C18.1 14.6165 17.3835 13.9 16.5 13.9ZM14.5 15.9C14.2796 15.9 14.1 15.7204 14.1 15.5C14.1 15.2796 14.2796 15.1 14.5 15.1C14.7204 15.1 14.9 15.2796 14.9 15.5C14.9 15.7204 14.7204 15.9 14.5 15.9ZM16.5 15.9C16.2796 15.9 16.1 15.7204 16.1 15.5C16.1 15.2796 16.2796 15.1 16.5 15.1C16.7204 15.1 16.9 15.2796 16.9 15.5C16.9 15.7204 16.7204 15.9 16.5 15.9Z" fill="#949292" stroke="#949292" stroke-width="0.2"/>
</g>
<defs>
<clipPath id="clip0_741_7229">
<rect width="20" height="20" fill="white"/>
</clipPath>
</defs>
</svg>
