<svg width="60" height="60" viewBox="0 0 60 60" fill="none" xmlns="http://www.w3.org/2000/svg">
<path d="M26.1277 36.6989V32.8318C26.1277 30.5604 24.6766 29.2044 22.2448 29.2044C19.8144 29.2044 18.3635 30.5604 18.3635 32.8318V36.6993C18.3635 38.9713 19.8143 40.3278 22.2453 40.3278L22.2459 39.6006V40.3278H22.2463C23.3715 40.3278 24.2815 40.0513 24.9508 39.5057C25.7317 38.8687 26.1277 37.9246 26.1277 36.6989ZM22.2453 37.7273C21.3043 37.7273 21.1152 37.3338 21.115 36.6989L21.1153 32.8318C21.1153 32.1969 21.3044 31.8035 22.2455 31.8035C23.2046 31.8035 23.4012 32.2146 23.4012 32.8318V36.6989C23.4012 37.3162 23.2046 37.7273 22.2453 37.7273Z" fill="#283673"/>
<path d="M36.3118 29.652C36.3118 28.8053 35.5678 28.2365 34.8731 28.2365C34.3526 28.2365 33.9189 28.5036 33.7089 28.952L24.0177 47.9536C23.9166 48.1576 23.8655 48.3689 23.8655 48.5818C23.8655 49.3204 24.5013 49.9447 25.254 49.9455H25.2558C25.8011 49.9447 26.2722 49.6511 26.5124 49.1678L36.16 30.3069C36.262 30.1015 36.3118 29.8873 36.3118 29.652Z" fill="#283673"/>
<path d="M40.461 39.0442C39.7874 38.4915 38.8767 38.2111 37.7547 38.2111C36.6321 38.2111 35.7214 38.4913 35.0476 39.0442C34.5114 39.484 33.8721 40.326 33.8723 41.8391V45.7073C33.8723 47.9785 35.3236 49.3345 37.7547 49.3345C40.1852 49.3345 41.6363 47.9784 41.6363 45.7069V41.8391C41.6365 40.3262 40.9972 39.4842 40.461 39.0442ZM37.7547 46.7345C36.8138 46.7345 36.6249 46.3415 36.6249 45.7071V41.8391C36.6247 41.4684 36.7094 41.2033 36.8767 41.0509C37.0943 40.8525 37.4738 40.8109 37.7538 40.8109H37.7549C38.7132 40.8109 38.9098 41.2222 38.91 41.8393L38.9098 45.7073C38.9098 46.0733 38.8225 46.3365 38.6505 46.49C38.4238 46.6922 38.0383 46.7345 37.7547 46.7345Z" fill="#283673"/>
<path d="M59.6831 19.6329L50.0575 1.45109C49.5847 0.558182 48.6571 -0.000181774 47.6467 4.43902e-08L12.3525 0.00418186C11.3425 0.00436368 10.4155 0.562546 9.94273 1.45509L0.317091 19.6327C0.108909 20.026 0 20.4642 0 20.9091V57.2727C0 58.7789 1.22109 60 2.72727 60H57.2727C58.7789 60 60 58.7789 60 57.2727V20.9091C60 20.4644 59.8911 20.0262 59.6831 19.6329ZM13.9951 5.45836L46.0053 5.45455L52.7429 18.1818H7.25745L13.9951 5.45836ZM5.45455 54.5455V23.6364H54.5455V54.5455H5.45455Z" fill="#283673"/>
</svg>
