<svg width="22" height="22" viewBox="0 0 22 22" fill="none" xmlns="http://www.w3.org/2000/svg">
<g clip-path="url(#clip0_462_1047)">
<path d="M16.8337 15.9166L11 21.7503L5.16634 15.9166C4.01256 14.7628 3.22684 13.2928 2.90852 11.6925C2.5902 10.0921 2.75358 8.43333 3.37801 6.92585C4.00243 5.41836 5.05986 4.12989 6.41656 3.22338C7.77326 2.31686 9.36831 1.83301 11 1.83301C12.6317 1.83301 14.2267 2.31686 15.5834 3.22338C16.9402 4.12989 17.9976 5.41836 18.622 6.92585C19.2464 8.43333 19.4098 10.0921 19.0915 11.6925C18.7732 13.2928 17.9874 14.7628 16.8337 15.9166ZM11 11.9163C11.4862 11.9163 11.9525 11.7231 12.2964 11.3793C12.6402 11.0355 12.8333 10.5692 12.8333 10.0829C12.8333 9.59671 12.6402 9.13039 12.2964 8.78657C11.9525 8.44276 11.4862 8.2496 11 8.2496C10.5138 8.2496 10.0475 8.44276 9.70364 8.78657C9.35982 9.13039 9.16667 9.59671 9.16667 10.0829C9.16667 10.5692 9.35982 11.0355 9.70364 11.3793C10.0475 11.7231 10.5138 11.9163 11 11.9163Z" fill="#949292"/>
</g>
<defs>
<clipPath id="clip0_462_1047">
<rect width="22" height="22" fill="white"/>
</clipPath>
</defs>
</svg>
