<svg width="23" height="14" viewBox="0 0 23 14" fill="none" xmlns="http://www.w3.org/2000/svg">
<path fill-rule="evenodd" clip-rule="evenodd" d="M11.179 11.7995C9.99493 12.7975 8.45902 13.4 6.78069 13.4C3.03582 13.4 0 10.4003 0 6.7C0 2.99969 3.03582 0 6.78069 0C8.45902 0 9.99493 0.602498 11.179 1.60054C12.363 0.602498 13.8989 0 15.5773 0C19.3221 0 22.358 2.99969 22.358 6.7C22.358 10.4003 19.3221 13.4 15.5773 13.4C13.8989 13.4 12.363 12.7975 11.179 11.7995Z" fill="#ED0006"/>
<path fill-rule="evenodd" clip-rule="evenodd" d="M11.1797 11.7995C12.6376 10.5706 13.5621 8.74195 13.5621 6.7C13.5621 4.65804 12.6376 2.82944 11.1797 1.60054C12.3637 0.602497 13.8996 0 15.578 0C19.3228 0 22.3587 2.99969 22.3587 6.7C22.3587 10.4003 19.3228 13.4 15.578 13.4C13.8996 13.4 12.3637 12.7975 11.1797 11.7995Z" fill="#F9A000"/>
<path fill-rule="evenodd" clip-rule="evenodd" d="M11.1793 11.7995C12.6372 10.5706 13.5616 8.74196 13.5616 6.70002C13.5616 4.65808 12.6372 2.82949 11.1793 1.60059C9.72133 2.82949 8.79688 4.65808 8.79688 6.70002C8.79688 8.74196 9.72133 10.5706 11.1793 11.7995Z" fill="#FF5E00"/>
</svg>
