<svg width="23" height="22" viewBox="0 0 23 22" fill="none" xmlns="http://www.w3.org/2000/svg">
<path d="M21.6598 8.35077C21.818 8.35077 21.9442 8.25654 22.0243 8.13892C22.105 8.02053 22.15 7.86535 22.15 7.70125V4.50436C22.15 4.04661 22.0235 3.62504 21.8114 3.31371C21.6 3.00325 21.2924 2.78921 20.9341 2.78921H2.06587C1.70759 2.78921 1.39999 3.00325 1.18856 3.31371C0.976542 3.62504 0.85 4.04661 0.85 4.50436V7.70125C0.85 7.86535 0.89503 8.02053 0.975659 8.13892C1.05576 8.25654 1.18198 8.35077 1.34017 8.35077C1.7822 8.35077 2.2003 8.61476 2.5145 9.07613C2.8281 9.53663 3.02711 10.1807 3.02711 10.8981C3.02711 11.6156 2.8281 12.2597 2.5145 12.7202C2.2003 13.1815 1.7822 13.4455 1.34017 13.4455C1.18198 13.4455 1.05576 13.5398 0.975659 13.6574C0.89503 13.7758 0.85 13.9309 0.85 14.095V17.2919C0.85 17.7497 0.976542 18.1713 1.18856 18.4826C1.39999 18.793 1.70759 19.0071 2.06587 19.0071H20.9341C21.2924 19.0071 21.6 18.793 21.8114 18.4826C22.0235 18.1713 22.15 17.7497 22.15 17.2919V14.095C22.15 13.9309 22.105 13.7758 22.0243 13.6574C21.9442 13.5398 21.818 13.4455 21.6598 13.4455C21.2178 13.4455 20.7997 13.1815 20.4855 12.7202C20.1719 12.2597 19.9729 11.6156 19.9729 10.8981C19.9729 10.1807 20.1719 9.53663 20.4855 9.07613C20.7997 8.61476 21.2178 8.35077 21.6598 8.35077ZM18.9925 10.8981C18.9925 11.857 19.2359 12.7387 19.642 13.4159C20.0228 14.0505 20.5536 14.5156 21.1697 14.6799V17.2919C21.1697 17.4218 21.1334 17.533 21.0826 17.6076C21.0312 17.6831 20.976 17.7081 20.9341 17.7081H17.4329V16.7591C17.4329 16.595 17.3879 16.4398 17.3073 16.3215C17.2272 16.2038 17.101 16.1096 16.9428 16.1096C16.7846 16.1096 16.6584 16.2038 16.5783 16.3215C16.4976 16.4398 16.4526 16.595 16.4526 16.7591V17.7081H2.06587C2.024 17.7081 1.96875 17.6831 1.91737 17.6076C1.86658 17.533 1.83035 17.4218 1.83035 17.2919V14.6799C2.44641 14.5156 2.97725 14.0505 3.35796 13.4158C3.76412 12.7387 4.00745 11.8569 4.00745 10.8981C4.00745 9.93937 3.76412 9.05761 3.35796 8.38047C2.97725 7.74577 2.44641 7.28067 1.83035 7.11635V4.50436C1.83035 4.37451 1.86658 4.26326 1.91737 4.18867C1.96875 4.11322 2.024 4.08824 2.06587 4.08824H16.4526V5.03717C16.4526 5.20127 16.4977 5.35645 16.5783 5.47484C16.6584 5.59246 16.7846 5.68669 16.9428 5.68669C17.101 5.68669 17.2272 5.59246 17.3073 5.47484C17.388 5.35645 17.433 5.20127 17.433 5.03717V4.08824H20.9341C20.976 4.08824 21.0312 4.11322 21.0826 4.18867C21.1334 4.26326 21.1697 4.37451 21.1697 4.50436V7.11636C20.5536 7.28067 20.0228 7.74578 19.6421 8.38047C19.2359 9.05761 18.9925 9.93937 18.9925 10.8981Z" fill="#949292" stroke="#949292" stroke-width="0.3"/>
<path d="M16.9417 9.71572C16.7835 9.71572 16.6573 9.80995 16.5772 9.92757C16.4966 10.046 16.4516 10.2011 16.4516 10.3652V11.4309C16.4516 11.595 16.4966 11.7502 16.5772 11.8685C16.6573 11.9862 16.7835 12.0804 16.9417 12.0804C17.0999 12.0804 17.2261 11.9862 17.3062 11.8685C17.3869 11.7502 17.4319 11.595 17.4319 11.4309V10.3652C17.4319 10.2012 17.3869 10.046 17.3063 9.9276C17.2262 9.80998 17.1 9.71572 16.9417 9.71572Z" fill="#949292" stroke="#949292" stroke-width="0.3"/>
<path d="M16.9417 6.51895C16.7835 6.51895 16.6573 6.61318 16.5772 6.73079C16.4966 6.84918 16.4516 7.00436 16.4516 7.16846V8.23409C16.4516 8.39819 16.4966 8.55337 16.5772 8.67176C16.6573 8.78938 16.7835 8.88361 16.9417 8.88361C17.0999 8.88361 17.2261 8.78938 17.3062 8.67176C17.3869 8.55337 17.4319 8.39819 17.4319 8.23409V7.16846C17.4319 7.0044 17.3869 6.84922 17.3063 6.73083C17.2262 6.6132 17.1 6.51895 16.9417 6.51895Z" fill="#949292" stroke="#949292" stroke-width="0.3"/>
<path d="M16.9417 12.9127C16.7835 12.9127 16.6573 13.007 16.5772 13.1246C16.4966 13.243 16.4516 13.3982 16.4516 13.5623V14.6279C16.4516 14.792 16.4966 14.9472 16.5772 15.0656C16.6573 15.1832 16.7835 15.2774 16.9417 15.2774C17.0999 15.2774 17.2261 15.1832 17.3062 15.0656C17.3869 14.9472 17.4319 14.792 17.4319 14.6279V13.5623C17.4319 13.3982 17.3869 13.243 17.3063 13.1246C17.2262 13.007 17.1 12.9127 16.9417 12.9127Z" fill="#949292" stroke="#949292" stroke-width="0.3"/>
<path d="M14.4041 5.98611H6.05849C5.80024 5.98611 5.58335 6.14039 5.43763 6.35437C5.29131 6.56922 5.20547 6.85758 5.20547 7.16844V14.6279C5.20547 14.9387 5.29131 15.2271 5.43763 15.4419C5.58335 15.6559 5.80024 15.8102 6.05849 15.8102H14.4041C14.6623 15.8102 14.8792 15.6559 15.0249 15.4419C15.1712 15.2271 15.2571 14.9387 15.2571 14.6279V7.16844C15.2571 6.85758 15.1712 6.56922 15.0249 6.35437C14.8792 6.14039 14.6623 5.98611 14.4041 5.98611ZM14.2767 7.28514V14.5112H6.18581V7.28514H14.2767Z" fill="#949292" stroke="#949292" stroke-width="0.3"/>
<path d="M12.9509 9.18301H7.50814C7.34995 9.18301 7.22373 9.27724 7.14363 9.39485C7.063 9.51324 7.01797 9.66843 7.01797 9.83252C7.01797 9.99662 7.063 10.1518 7.14363 10.2702C7.22373 10.3878 7.34995 10.482 7.50814 10.482H12.9509C13.1091 10.482 13.2353 10.3878 13.3154 10.2702C13.396 10.1518 13.4411 9.99662 13.4411 9.83252C13.4411 9.66843 13.396 9.51324 13.3154 9.39485C13.2353 9.27724 13.1091 9.18301 12.9509 9.18301Z" fill="#949292" stroke="#949292" stroke-width="0.3"/>
<path d="M8.59669 11.4642H7.50814C7.32028 11.4642 7.16797 11.6878 7.16797 11.9637C7.16797 12.2397 7.32028 12.4633 7.50814 12.4633H8.59669C8.78456 12.4633 8.93687 12.2397 8.93687 11.9637C8.93687 11.6878 8.78456 11.4642 8.59669 11.4642Z" fill="#949292"/>
<path d="M12.9539 11.4642H10.0511C9.86324 11.4642 9.71094 11.6878 9.71094 11.9637C9.71094 12.2397 9.86324 12.4633 10.0511 12.4633H12.9539C13.1418 12.4633 13.2941 12.2397 13.2941 11.9637C13.2941 11.6878 13.1418 11.4642 12.9539 11.4642Z" fill="#949292"/>
</svg>
