<svg width="60" height="56" viewBox="0 0 60 56" fill="none" xmlns="http://www.w3.org/2000/svg">
<path d="M57.377 44.5574H56.5574V30.551C56.5574 27.7885 54.2664 25.541 51.4505 25.541H31.3115V16.0328H34.7541C36.2003 16.0328 37.377 14.8561 37.377 13.4098V3.57376C37.377 2.12753 36.2003 0.950806 34.7541 0.950806H23.4426C21.9964 0.950806 20.8197 2.12753 20.8197 3.57376V13.4098C20.8197 14.8561 21.9964 16.0328 23.4426 16.0328H26.3934V25.541H7.97557C5.15803 25.541 2.95082 27.7416 2.95082 30.551V44.5574H2.62295C1.17672 44.5574 0 45.7341 0 47.1803V52.4262C0 53.8724 1.17672 55.0492 2.62295 55.0492H8.85246C10.2987 55.0492 11.4754 53.8724 11.4754 52.4262V47.1803C11.4754 45.7341 10.2987 44.5574 8.85246 44.5574H7.86885V30.551C7.86885 30.4897 7.86885 30.459 7.97557 30.459H26.3934V44.5574H25.9016C24.4554 44.5574 23.2787 45.7341 23.2787 47.1803V52.4262C23.2787 53.8724 24.4554 55.0492 25.9016 55.0492H32.1311C33.5774 55.0492 34.7541 53.8724 34.7541 52.4262V47.1803C34.7541 45.7341 33.5774 44.5574 32.1311 44.5574H31.3115V30.459H51.4505C51.56 30.459 51.6393 30.5139 51.6393 30.551V44.5574H51.1475C49.7013 44.5574 48.5246 45.7341 48.5246 47.1803V52.4262C48.5246 53.8724 49.7013 55.0492 51.1475 55.0492H57.377C58.8233 55.0492 60 53.8724 60 52.4262V47.1803C60 45.7341 58.8233 44.5574 57.377 44.5574Z" fill="#283673"/>
</svg>
