<svg width="50" height="60" viewBox="0 0 50 60" fill="none" xmlns="http://www.w3.org/2000/svg">
<path d="M42.3336 23.4622C38.7284 23.4622 35.7957 26.3948 35.7957 30C35.7957 33.6052 38.7282 36.5378 42.3336 36.5378C45.9386 36.5378 48.8713 33.6052 48.8713 30C48.8713 26.395 45.9388 23.4622 42.3336 23.4622ZM42.3336 33.1771C40.5818 33.1771 39.1563 31.7516 39.1563 30C39.1563 28.2484 40.5818 26.8229 42.3336 26.8229C44.0852 26.8229 45.5106 28.2484 45.5106 30C45.5106 31.7516 44.0852 33.1771 42.3336 33.1771Z" fill="#283673" stroke="#283673" stroke-width="0.5"/>
<path d="M42.3336 47.1745C38.7284 47.1745 35.7957 50.107 35.7957 53.7123C35.7957 57.3175 38.7282 60.25 42.3336 60.25C45.9386 60.25 48.8713 57.3175 48.8713 53.7123C48.8713 50.107 45.9388 47.1745 42.3336 47.1745ZM42.3336 56.8893C40.5818 56.8893 39.1563 55.4639 39.1563 53.7123C39.1563 51.9606 40.5818 50.5352 42.3336 50.5352C44.0852 50.5352 45.5106 51.9606 45.5106 53.7123C45.5106 55.4639 44.0852 56.8893 42.3336 56.8893Z" fill="#283673" stroke="#283673" stroke-width="0.5"/>
<path d="M35.7957 6.28775V6.28776C35.7958 9.89296 38.7284 12.8255 42.3336 12.8255C45.9386 12.8255 48.8713 9.89296 48.8713 6.28775C48.8713 2.68255 45.9388 -0.25 42.3336 -0.25C38.7284 -0.25 35.7957 2.68254 35.7957 6.28775ZM42.3336 3.11067C44.0852 3.11067 45.5106 4.53613 45.5106 6.28775C45.5106 8.03938 44.0852 9.46484 42.3336 9.46484C40.5818 9.46484 39.1563 8.03937 39.1563 6.28775C39.1563 4.53614 40.5819 3.11067 42.3336 3.11067Z" fill="#283673" stroke="#283673" stroke-width="0.5"/>
<path d="M33.471 7.96809C34.3991 7.96809 35.1513 7.21582 35.1513 6.28776C35.1513 5.35969 34.3991 4.60742 33.471 4.60742H28.0511C27.123 4.60742 26.3707 5.35969 26.3707 6.28776V28.3197H22.8568C21.9288 28.3197 21.1765 29.0719 21.1765 30C21.1765 30.9281 21.9288 31.6803 22.8568 31.6803H26.3707V53.7122C26.3707 54.6403 27.123 55.3926 28.0511 55.3926H33.471C34.3991 55.3926 35.1513 54.6403 35.1513 53.7122C35.1513 52.7842 34.3991 52.0319 33.471 52.0319H29.7314V31.6803H33.471C34.3991 31.6803 35.1513 30.9281 35.1513 30C35.1513 29.0719 34.3991 28.3197 33.471 28.3197H29.7314V7.96809H33.471Z" fill="#283673" stroke="#283673" stroke-width="0.5"/>
<path d="M3.16109 16.8463C3.16109 18.6224 3.87376 20.2344 5.0263 21.4132C2.68236 22.9435 1.12866 25.5897 1.12866 28.5936V34.9128C1.12866 36.3565 1.95657 37.6094 3.16124 38.2231V46.6121C3.16124 48.3101 4.54241 49.6913 6.24045 49.6913H13.1575C14.8556 49.6913 16.2367 48.3101 16.2367 46.6121V38.2231C17.4413 37.6093 18.2692 36.3565 18.2692 34.9128V28.5936C18.2692 25.5898 16.7153 22.9435 14.3714 21.4133C15.5239 20.2345 16.2366 18.6225 16.2366 16.8465C16.2366 13.2413 13.304 10.3087 9.69885 10.3087C6.09365 10.3087 3.16109 13.2413 3.16109 16.8463ZM6.52176 16.8463C6.52176 15.0947 7.94722 13.6693 9.69885 13.6693C11.4505 13.6693 12.8759 15.0947 12.8759 16.8463C12.8759 18.598 11.4505 20.0234 9.69885 20.0234C7.94722 20.0234 6.52176 18.598 6.52176 16.8463ZM14.9085 34.913C14.9085 35.1069 14.7503 35.2651 14.5564 35.2651C13.6283 35.2651 12.8761 36.0174 12.8761 36.9454V46.3309H11.3793V38.3103C11.3793 37.3822 10.6271 36.6299 9.699 36.6299C8.77093 36.6299 8.01866 37.3822 8.01866 38.3103V46.3309H6.52191V36.9454C6.52191 36.0174 5.76965 35.2651 4.84158 35.2651C4.64766 35.2651 4.48948 35.1069 4.48948 34.913V28.5938C4.48948 25.7215 6.82674 23.3843 9.699 23.3843C12.5713 23.3843 14.9085 25.7215 14.9085 28.5938V34.913Z" fill="#283673" stroke="#283673" stroke-width="0.5"/>
</svg>
