<svg width="28" height="24" viewBox="0 0 28 24" fill="none" xmlns="http://www.w3.org/2000/svg">
<path d="M9.34281 21.117C6.22814 21.117 3.08077 18.4506 3.08077 15.8119C3.08077 15.4471 2.76541 15.1522 2.33481 15.1522C1.90421 15.1522 1.52344 15.4471 1.52344 15.8119C1.52344 19.7699 4.67081 22.4363 9.34281 22.4363C9.77341 22.4363 10.1215 22.1137 10.1215 21.7489C10.1215 21.3841 9.77341 21.117 9.34281 21.117Z" fill="#5DADEC"/>
<path d="M5.45067 22.4086C3.11467 22.4086 1.55733 21.0892 1.55733 19.1102C1.55733 18.7454 1.20927 18.4505 0.778667 18.4505C0.348064 18.4505 0 18.7454 0 19.1102C0 21.7489 2.336 23.7279 5.45067 23.7279C5.88127 23.7279 6.22934 23.433 6.22934 23.0682C6.22934 22.7034 5.88127 22.4086 5.45067 22.4086ZM18.688 1.29907C18.2582 1.29907 17.9093 1.59461 17.9093 1.95874C17.9093 2.32288 18.2582 2.61842 18.688 2.61842C21.8027 2.61842 24.9173 4.98598 24.9173 7.89579C24.9173 8.25993 25.2662 8.55546 25.696 8.55546C26.1258 8.55546 26.4747 8.25993 26.4747 7.89579C26.4747 4.25836 23.36 1.29907 18.688 1.29907Z" fill="#5DADEC"/>
<path d="M22.5834 0.00744629C22.1535 0.00744629 21.8047 0.275273 21.8047 0.639412C21.8047 1.00355 22.1535 1.32679 22.5834 1.32679C24.9194 1.32679 26.444 2.79456 26.444 4.59744C26.444 4.96158 26.8248 5.25712 27.2554 5.25712C27.686 5.25712 28.0013 4.96158 28.0013 4.59744C28.0013 2.06628 25.698 0.00744629 22.5834 0.00744629Z" fill="#5DADEC"/>
</svg>
