<svg width="35" height="29" viewBox="0 0 35 29" fill="none" xmlns="http://www.w3.org/2000/svg">
<path d="M15.4634 13.3867L7.94669 1.60003L11.165 0.736694L22.75 11.4367L31.52 9.08669C32.1605 8.91519 32.8429 9.00514 33.4171 9.33677C33.9913 9.6684 34.4102 10.2145 34.5817 10.855C34.7532 11.4955 34.6632 12.1779 34.3316 12.7521C34 13.3263 33.4539 13.7452 32.8134 13.9167L7.86003 20.6L6.56669 15.77L6.96836 15.6617L11.08 19.7367L6.70336 20.91C6.34447 21.0063 5.96371 20.9798 5.62158 20.8348C5.27945 20.6899 4.99556 20.4348 4.81503 20.11L0.443359 12.2334L2.85836 11.5867L6.96836 15.6617L15.4634 13.385V13.3867ZM4.66669 25.6667H31.3334V29H4.66669V25.6667Z" fill="url(#paint0_linear_217_44)"/>
<defs>
<linearGradient id="paint0_linear_217_44" x1="17.5551" y1="0.736694" x2="17.5551" y2="29" gradientUnits="userSpaceOnUse">
<stop stop-color="#6363FE"/>
<stop offset="1" stop-color="#050526"/>
</linearGradient>
</defs>
</svg>
