<svg width="14" height="16" viewBox="0 0 14 16" fill="none" xmlns="http://www.w3.org/2000/svg">
<path d="M7.00138 11.75C9.74788 11.75 12.1501 12.9312 13.4566 14.6937L12.0751 15.347C11.0116 14.087 9.13663 13.25 7.00138 13.25C4.86613 13.25 2.99113 14.087 1.92763 15.347L0.546875 14.693C1.85337 12.9305 4.25487 11.75 7.00138 11.75ZM7.00138 0.5C7.99594 0.5 8.94976 0.895088 9.65303 1.59835C10.3563 2.30161 10.7514 3.25544 10.7514 4.25V6.5C10.7513 7.46635 10.3782 8.39537 9.70988 9.09333C9.04154 9.7913 8.12956 10.2043 7.16412 10.2463L7.00138 10.25C6.00681 10.25 5.05299 9.85491 4.34972 9.15165C3.64646 8.44839 3.25137 7.49456 3.25137 6.5V4.25C3.25143 3.28365 3.62453 2.35463 4.29287 1.65667C4.96121 0.958705 5.87319 0.54569 6.83862 0.50375L7.00138 0.5ZM7.00138 2C6.42747 1.99997 5.87524 2.21924 5.45768 2.61296C5.04012 3.00668 4.78879 3.54508 4.75513 4.118L4.75138 4.25V6.5C4.75081 7.08568 4.97864 7.6485 5.38645 8.06886C5.79427 8.48923 6.34992 8.73401 6.93535 8.7512C7.52077 8.76839 8.08983 8.55662 8.5216 8.1609C8.95337 7.76519 9.21383 7.2167 9.24763 6.632L9.25138 6.5V4.25C9.25138 3.65326 9.01432 3.08097 8.59237 2.65901C8.17041 2.23705 7.59811 2 7.00138 2Z" fill="#33334C"/>
</svg>
