<svg width="20" height="16" viewBox="0 0 20 16" fill="none" xmlns="http://www.w3.org/2000/svg">
<path d="M9.3 9.7C9.3 9.17 8.83 8.7 8.3 8.7H1C0.47 8.7 0 9.17 0 9.7V15C0 15.53 0.47 16 1 16H8.3C8.83 16 9.3 15.53 9.3 15V9.7ZM20 9.7C20 9.17 19.53 8.7 19 8.7H11.7C11.17 8.7 10.7 9.17 10.7 9.7V15C10.7 15.53 11.17 16 11.7 16H19C19.53 16 20 15.53 20 15V9.7ZM20 1C20 0.47 19.53 0 19 0H11.7C11.17 0 10.7 0.47 10.7 1V6.3C10.7 6.83 11.17 7.3 11.7 7.3H19C19.53 7.3 20 6.83 20 6.3V1ZM9.3 1C9.3 0.47 8.83 0 8.3 0H1C0.47 0 0 0.47 0 1V6.3C0 6.83 0.47 7.3 1 7.3H8.3C8.83 7.3 9.3 6.83 9.3 6.3V1Z" fill="white"/>
</svg>
