<svg width="54" height="54" viewBox="0 0 54 54" fill="none" xmlns="http://www.w3.org/2000/svg">
<path d="M13.025 31.0005V31V22.25C13.025 17.3338 14.4112 13.2129 16.8383 10.3285C19.2598 7.45051 22.7399 5.775 27 5.775C31.2601 5.775 34.7402 7.44992 37.1618 10.3275C39.5888 13.2117 40.975 17.3325 40.975 22.25V29.75C40.975 33.1555 40.489 35.7007 39.3936 37.6679C38.3498 39.5426 36.7295 40.9332 34.3488 42.0378C33.547 40.8015 32.3865 39.8354 31.0189 39.2717C29.5394 38.6618 27.8999 38.557 26.3547 38.9736C24.8095 39.3901 23.4449 40.3046 22.4722 41.5755C21.5003 42.8454 20.9741 44.4003 20.975 45.9994C20.9447 47.9277 21.6811 49.7891 23.0226 51.1747C24.3648 52.5611 26.2028 53.3575 28.1323 53.3887C30.0617 53.4199 31.9245 52.6834 33.3109 51.3412C34.6302 50.0639 35.4152 48.3377 35.5151 46.5109C38.2836 45.4992 40.6956 43.6945 42.448 41.3193C44.1783 38.9742 45.1876 36.1789 45.3572 33.275H45.7475H45.7479C47.6766 33.2729 49.5257 32.5058 50.8895 31.142C52.2533 29.7782 53.0204 27.9291 53.0225 26.0004V26V23.5L53.0225 23.4994C53.0197 21.571 52.2524 19.7223 50.8888 18.3587C49.5252 16.9951 47.6765 16.2278 45.7481 16.225H45.7475H44.8744C42.8629 7.31188 36.2903 1.225 27 1.225C17.7097 1.225 11.1347 7.31181 9.12307 16.225L8.25 16.225L8.24942 16.225C6.32053 16.2278 4.47147 16.9955 3.10779 18.3597C1.7441 19.7238 0.977099 21.5732 0.975 23.5021V23.5025L0.975 26.0025L0.975 26.0031C0.977801 27.9313 1.74521 29.7797 3.10892 31.1429C4.47264 32.5062 6.32133 33.2729 8.24956 33.275H8.25H10.75H10.7505C11.3535 33.2742 11.9316 33.0343 12.3579 32.6079C12.7843 32.1816 13.0242 31.6035 13.025 31.0005ZM25.9842 47.5164C25.6849 47.0684 25.5251 46.5417 25.525 46.0028C25.5256 45.2802 25.8129 44.5873 26.3239 44.0764C26.8348 43.5654 27.5277 43.2781 28.2503 43.2775C28.7892 43.2776 29.3159 43.4374 29.7639 43.7367C30.2121 44.0362 30.5613 44.4618 30.7676 44.9597C30.9738 45.4576 31.0278 46.0055 30.9226 46.5341C30.8175 47.0627 30.558 47.5483 30.1769 47.9294C29.7958 48.3105 29.3102 48.57 28.7816 48.6751C28.253 48.7803 27.7051 48.7263 27.2072 48.5201C26.7093 48.3138 26.2837 47.9646 25.9842 47.5164ZM45.7475 28.7275H45.525V20.775H45.7497C46.4727 20.7756 47.1659 21.0632 47.6769 21.5746C48.1879 22.0861 48.475 22.7795 48.475 23.5025V26.0022C48.4744 26.7252 48.1868 27.4184 47.6754 27.9294C47.1639 28.4404 46.4705 28.7275 45.7475 28.7275ZM5.525 26.0021C5.525 26.0021 5.525 26.002 5.525 26.0019L5.525 23.5025C5.525 22.7795 5.81206 22.0861 6.3231 21.5746C6.83413 21.0632 7.52732 20.7756 8.25032 20.775H8.475V28.725H8.25032C7.52807 28.7244 6.83554 28.4374 6.32463 27.9269C5.81379 27.4165 5.52623 26.7243 5.525 26.0021Z" fill="#283673" stroke="#283673" stroke-width="0.8"/>
</svg>
