<svg width="38" height="38" viewBox="0 0 38 38" fill="none" xmlns="http://www.w3.org/2000/svg">
<g clip-path="url(#clip0_128_795)">
<path d="M37.5484 19.3554C37.5484 17.7986 37.4221 16.6625 37.1487 15.4844H19.3711V22.5112H29.8062C29.5958 24.2574 28.4598 26.8873 25.9351 28.6544L25.8997 28.8897L31.5206 33.2442L31.9101 33.283C35.4866 29.9799 37.5484 25.12 37.5484 19.3554Z" fill="#4285F4"/>
<path d="M19.3702 37.8694C24.4825 37.8694 28.7743 36.1862 31.9091 33.283L25.9341 28.6544C24.3352 29.7695 22.1893 30.5479 19.3702 30.5479C14.363 30.5479 10.1132 27.2449 8.59831 22.6796L8.37626 22.6984L2.53151 27.2217L2.45508 27.4342C5.56876 33.6195 11.9645 37.8694 19.3702 37.8694Z" fill="#34A853"/>
<path d="M8.59844 22.6797C8.19871 21.5015 7.96738 20.2391 7.96738 18.9348C7.96738 17.6303 8.19872 16.368 8.57741 15.1899L8.56682 14.939L2.64883 10.343L2.4552 10.4351C1.17191 13.0019 0.435547 15.8842 0.435547 18.9348C0.435547 21.9854 1.17191 24.8676 2.4552 27.4343L8.59844 22.6797Z" fill="#FBBC05"/>
<path d="M19.3702 7.32138C22.9256 7.32138 25.324 8.85719 26.6915 10.1406L32.0353 4.92303C28.7534 1.87244 24.4825 0 19.3702 0C11.9645 0 5.56876 4.24976 2.45508 10.4351L8.57728 15.1898C10.1132 10.6245 14.363 7.32138 19.3702 7.32138Z" fill="#EB4335"/>
</g>
<defs>
<clipPath id="clip0_128_795">
<rect width="38" height="38" fill="white"/>
</clipPath>
</defs>
</svg>
