<svg width="24" height="24" viewBox="0 0 24 24" fill="none" xmlns="http://www.w3.org/2000/svg">
<path d="M11.3 13.7C11.3 13.17 10.83 12.7 10.3 12.7H3C2.47 12.7 2 13.17 2 13.7V19C2 19.53 2.47 20 3 20H10.3C10.83 20 11.3 19.53 11.3 19V13.7ZM22 13.7C22 13.17 21.53 12.7 21 12.7H13.7C13.17 12.7 12.7 13.17 12.7 13.7V19C12.7 19.53 13.17 20 13.7 20H21C21.53 20 22 19.53 22 19V13.7ZM22 5C22 4.47 21.53 4 21 4H13.7C13.17 4 12.7 4.47 12.7 5V10.3C12.7 10.83 13.17 11.3 13.7 11.3H21C21.53 11.3 22 10.83 22 10.3V5ZM11.3 5C11.3 4.47 10.83 4 10.3 4H3C2.47 4 2 4.47 2 5V10.3C2 10.83 2.47 11.3 3 11.3H10.3C10.83 11.3 11.3 10.83 11.3 10.3V5Z" fill="#949292"/>
</svg>
