<svg width="24" height="24" viewBox="0 0 24 24" fill="none" xmlns="http://www.w3.org/2000/svg">
<g clip-path="url(#clip0_128_814)">
<path d="M17.8826 19.2969C16.1239 20.4125 14.0834 21.0033 12.0006 20.9999C6.60864 20.9999 2.12264 17.1199 1.18164 11.9999C1.61167 9.67066 2.78327 7.54284 4.52164 5.93394L1.39264 2.80794L2.80764 1.39294L22.6066 21.1929L21.1916 22.6069L17.8816 19.2969H17.8826ZM5.93564 7.34994C4.57665 8.58553 3.62996 10.2087 3.22364 11.9999C3.53593 13.3664 4.1629 14.6411 5.05464 15.7225C5.94638 16.804 7.07827 17.6623 8.36019 18.2293C9.64212 18.7962 11.0387 19.056 12.4387 18.9881C13.8388 18.9201 15.2036 18.5263 16.4246 17.8379L14.3966 15.8099C13.5333 16.3538 12.5108 16.588 11.4969 16.4744C10.4829 16.3607 9.53768 15.9058 8.81621 15.1844C8.09474 14.4629 7.63987 13.5177 7.5262 12.5037C7.41254 11.4897 7.64682 10.4673 8.19064 9.60394L5.93564 7.34994ZM12.9146 14.3279L9.67264 11.0859C9.49471 11.5389 9.45283 12.0339 9.55215 12.5103C9.65146 12.9867 9.88766 13.4237 10.2318 13.7678C10.5759 14.1119 11.0129 14.3481 11.4893 14.4474C11.9657 14.5468 12.4607 14.5049 12.9136 14.3269L12.9146 14.3279ZM20.8076 16.5919L19.3766 15.1619C20.0451 14.2092 20.521 13.1351 20.7776 11.9999C20.5059 10.8097 19.9949 9.68709 19.2758 8.70044C18.5567 7.71379 17.6444 6.88367 16.5945 6.26055C15.5446 5.63743 14.3789 5.23431 13.1684 5.07571C11.9578 4.9171 10.7276 5.00632 9.55264 5.33794L7.97464 3.75994C9.22164 3.26994 10.5806 2.99994 12.0006 2.99994C17.3926 2.99994 21.8786 6.87994 22.8196 11.9999C22.5132 13.6656 21.8245 15.2375 20.8076 16.5919ZM11.7236 7.50794C12.3602 7.46861 12.9978 7.56501 13.5942 7.79076C14.1906 8.01651 14.7323 8.36646 15.1832 8.81739C15.6341 9.26833 15.9841 9.80997 16.2098 10.4064C16.4356 11.0028 16.532 11.6404 16.4926 12.2769L11.7226 7.50794H11.7236Z" fill="#BBBBBB"/>
</g>
<defs>
<clipPath id="clip0_128_814">
<rect width="24" height="24" fill="white"/>
</clipPath>
</defs>
</svg>
