<svg width="36" height="36" viewBox="0 0 36 36" fill="none" xmlns="http://www.w3.org/2000/svg">
<g clip-path="url(#clip0_1_23)">
<path d="M33 31.5H3V28.5H4.5V6C4.5 5.60218 4.65804 5.22064 4.93934 4.93934C5.22064 4.65804 5.60218 4.5 6 4.5H27C27.3978 4.5 27.7794 4.65804 28.0607 4.93934C28.342 5.22064 28.5 5.60218 28.5 6V13.5H31.5V28.5H33V31.5ZM25.5 28.5H28.5V16.5H19.5V28.5H22.5V19.5H25.5V28.5ZM25.5 13.5V7.5H7.5V28.5H16.5V13.5H25.5ZM10.5 16.5H13.5V19.5H10.5V16.5ZM10.5 22.5H13.5V25.5H10.5V22.5ZM10.5 10.5H13.5V13.5H10.5V10.5Z" fill="#283673"/>
</g>
<defs>
<clipPath id="clip0_1_23">
<rect width="36" height="36" fill="white"/>
</clipPath>
</defs>
</svg>
