<svg width="32" height="32" viewBox="0 0 32 32" fill="none" xmlns="http://www.w3.org/2000/svg">
<g clip-path="url(#clip0_131_4)">
<path d="M27.9997 26.6667H30.6663V29.3334H1.33301V26.6667H3.99967V4.00002C3.99967 3.6464 4.14015 3.30726 4.3902 3.05721C4.64025 2.80716 4.97939 2.66669 5.33301 2.66669H26.6663C27.02 2.66669 27.3591 2.80716 27.6092 3.05721C27.8592 3.30726 27.9997 3.6464 27.9997 4.00002V26.6667ZM25.333 26.6667V5.33335H6.66634V26.6667H25.333ZM10.6663 14.6667H14.6663V17.3334H10.6663V14.6667ZM10.6663 9.33335H14.6663V12H10.6663V9.33335ZM10.6663 20H14.6663V22.6667H10.6663V20ZM17.333 20H21.333V22.6667H17.333V20ZM17.333 14.6667H21.333V17.3334H17.333V14.6667ZM17.333 9.33335H21.333V12H17.333V9.33335Z" fill="#283673"/>
</g>
<defs>
<clipPath id="clip0_131_4">
<rect width="32" height="32" fill="white"/>
</clipPath>
</defs>
</svg>
